<?xml version="1.0" encoding="utf-8"?>
<!-- Generator: Adobe Illustrator 19.0.0, SVG Export Plug-In . SVG Version: 6.00 Build 0)  -->
<svg version="1.1" id="Layer_1" xmlns="http://www.w3.org/2000/svg" xmlns:xlink="http://www.w3.org/1999/xlink" x="0px" y="0px"
	 width="100px" height="100px" viewBox="0 0 100 100" style="enable-background:new 0 0 100 100;" xml:space="preserve">
<style type="text/css">
	.st0{fill:none;stroke:#3DDC0A;stroke-width:9;stroke-linecap:round;stroke-linejoin:round;stroke-miterlimit:10;}
</style>
<g>
	<path class="st0" d="M9.6611233,28.6096611c0.8093128-1.9537659,2.8667803-3.0395718,4.9533453-2.6954231
		c3.0187902,0.4979038,6.2253351-0.4173908,8.5538301-2.7458858c2.3285141-2.3285122,3.2438049-5.5350895,2.7458744-8.5538998
		c-0.3441772-2.0866499,0.741663-4.1442089,2.6955357-4.9534941l8.0308323-3.326334
		c1.9333801-0.8007965,4.1357536-0.120954,5.348877,1.5842023c1.7806473,2.5028596,4.7049408,4.1354556,8.0105438,4.1354556
		c3.3056793,0,6.2300301-1.6326704,8.0106659-4.1356258c1.2130928-1.7051888,3.415493-2.3850284,5.3488541-1.5841689
		l8.0308609,3.3266358c1.9537659,0.8093128,3.039566,2.8667803,2.6954193,4.9533453
		c-0.4979019,3.0187902,0.4173889,6.2253351,2.7458878,8.5538301c2.3285141,2.3285141,5.5350876,3.2438049,8.5539017,2.7458744
		c2.086647-0.3441772,4.1442032,0.741663,4.9534912,2.6955357l3.3263321,8.0308323
		c0.8007965,1.9333801,0.1209564,4.1357536-1.584198,5.348877c-2.502861,1.7806473-4.1354599,4.7049408-4.1354599,8.0105438
		c0,3.3056793,1.6326675,6.2300301,4.1356277,8.0106659c1.7051849,1.2130928,2.385025,3.415493,1.5841675,5.3488541
		l-3.3266373,8.0308609c-0.8093109,1.9537659-2.8667755,3.039566-4.9533463,2.6954193
		c-3.0187912-0.4979019-6.2253342,0.4173889-8.5538254,2.7458878c-2.3285141,2.3285141-3.2438049,5.5350876-2.7458725,8.5539017
		c0.3441772,2.086647-0.7416687,4.1442032-2.6955414,4.9534912l-8.0308304,3.3263321
		c-1.9333801,0.8007965-4.1357536,0.1209564-5.348877-1.584198c-1.7806473-2.502861-4.7049408-4.1354599-8.0105438-4.1354599
		c-3.3056793,0-6.2300301,1.6326675-8.0106659,4.1356277c-1.2130928,1.7051849-3.415493,2.385025-5.3488541,1.5841675
		l-8.0308571-3.3266373c-1.9537659-0.8093109-3.0395718-2.8667755-2.6954231-4.9533463
		c0.4979038-3.0187912-0.4173908-6.2253342-2.7458858-8.5538254c-2.3285122-2.3285141-5.5350895-3.2438049-8.5538998-2.7458725
		c-2.0866499,0.3441772-4.1442089-0.7416687-4.9534941-2.6955414l-3.326334-8.0308304
		c-0.8007965-1.9333801-0.120954-4.1357536,1.5842023-5.348877c2.5028596-1.7806473,4.1354556-4.7049408,4.1354556-8.0105438
		c0-3.3056793-1.6326704-6.2300301-4.1356258-8.0106659c-1.7051888-1.2130928-2.3850284-3.415493-1.5841689-5.3488541
		L9.6611233,28.6096611z"/>
	<circle class="st0" cx="50" cy="50" r="12.3319378"/>
</g>
</svg>
