<?xml version="1.0" encoding="utf-8"?>
<!-- Generator: Adobe Illustrator 19.0.0, SVG Export Plug-In . SVG Version: 6.00 Build 0)  -->
<svg version="1.1" id="Layer_1" xmlns="http://www.w3.org/2000/svg" xmlns:xlink="http://www.w3.org/1999/xlink" x="0px" y="0px"
	 width="100px" height="100px" viewBox="-205 207 100 100" style="enable-background:new -205 207 100 100;" xml:space="preserve">
<style type="text/css">
	.st0{fill:none;stroke:#5b53bf;stroke-width:8;stroke-linecap:round;stroke-linejoin:round;stroke-miterlimit:10;}
</style>
<path class="st0" d="M-110.2866516,237.925354c-1.1362381-8.6057434-5.4130783-12.0862732-14.0239334-12.5109711
	c-10.377388-0.5118256-20.7624893-0.6417542-31.4957809-0.7633667c-9.8675537,0.1752319-20.0850372,0.1744843-30.289978,0.7679443
	c-8.4685364,0.4924622-12.5739594,3.9928894-13.8495483,12.4437561c-1.6231232,10.7528687-0.9706421,21.584549-0.6515808,32.3909454
	c0.0675812,2.2883606,0.3696136,4.5919189,0.7997437,6.8433838c1.3540649,7.0878601,5.3829498,10.5741272,12.5513458,11.2018738
	c8.0636902,0.7061462,16.1547089,0.6679688,24.2319489,0.9090881c13.1105042,0.3913879,26.2130432-0.0769043,39.3098602-0.8539429
	c7.8287201-0.4645081,12.239151-3.936554,13.3434219-11.7126465
	C-108.5315399,263.757843-108.5858917,250.8065948-110.2866516,237.925354z M-167.5053864,268.8052979v-9.2651062v-5.0803833
	v-9.2651215L-142.4946136,257L-167.5053864,268.8052979z"/>
</svg>
