<?xml version="1.0" encoding="utf-8"?>
<!-- Generator: Adobe Illustrator 19.0.0, SVG Export Plug-In . SVG Version: 6.00 Build 0)  -->
<svg version="1.1" id="Layer_1" xmlns="http://www.w3.org/2000/svg" xmlns:xlink="http://www.w3.org/1999/xlink" x="0px" y="0px"
	 width="100px" height="100px" viewBox="-205 207 100 100" style="enable-background:new -205 207 100 100;" xml:space="preserve">
<style type="text/css">
	.st0{fill:none;stroke:#5b53bf;stroke-width:8;stroke-linecap:round;stroke-linejoin:round;stroke-miterlimit:10;}
</style>
<g>
	<path class="st0" d="M-191.6713715,230.4223175c11.7424164-1.2457123,16.6594543-1.160675,22.760849-2.1756744
		c5.6786041-0.9446411,12.3840637-2.5102539,12.3845825-2.510376c2.437973-0.5664368,6.3743134-1.5239105,20.0830994-5.5228577
		c3.3639069-0.9812775,8.0019989-2.3457489,13.5560989-4.0166321c0.5041656-0.139267,4.3943481-1.1445618,7.6985245,1.3388824
		c1.806839,1.3580475,2.5991287,3.2102814,3.0124664,4.3513489c4.6061249,12.7157745,2.8451004,28.116333,2.8451004,28.116333
		s-0.42276,9.5225067-4.0166168,19.4136505c-0.0852356,0.3992004-0.7427521,3.2432861-3.5145493,4.6860657
		c-3.3837585,1.761322-14.563736-2.5158691-20.0830994-4.0166321c-8.5188446-2.3163147-12.7782745-3.4744568-17.9074249-4.6860352
		c-7.4092102-1.7501526-14.4076385-3.3821411-23.5976563-4.5187073c-6.1257324-0.7575989-11.2265472-1.0478821-14.7276154-1.1715088
		c-1.2590332-0.3615723-3.4022217-1.1908569-5.0207672-3.1798401c-0.3509979-0.4313354-1.4351501-1.8484955-2.1756744-6.6943665
		c-0.5787811-3.7875519-1.1273956-7.377655,0.1673584-11.7151337c0.5922394-1.9839478,1.2504272-4.0897217,3.1798248-5.6902161
		C-195.0759583,230.8123016-192.8318024,230.5454254-191.6713715,230.4223175z"/>
	<path class="st0" d="M-120.4299545,215.8220673c-2.6863022,4.8223572-7.0080872,14.108429-7.6024246,26.5276031
		c-0.7408905,15.4814453,4.7294769,27.0765991,7.4406662,32.0272217"/>
	<path class="st0" d="M-172.3300934,228.7041626c-1.4536591,3.1653442-3.6029358,8.9153595-3.7135773,16.4016418
		c-0.1110992,7.5167542,1.8838501,13.3475952,3.2493896,16.556366"/>
	<path class="st0" d="M-185.9018402,260.9985962c1.7933044,5.7702942,3.5335999,11.797699,5.1881256,18.0747986
		c1.3560944,5.1448975,2.5787964,10.1699219,3.6819153,15.0623474c0.8057404,1.1286926,2.3709717,2.9066772,4.8534088,3.6818848
		c1.3088989,0.4087524,2.3692322,0.3814392,4.1839752,0.3347168c2.924942-0.0753174,4.3874054-0.1129456,5.1881409-1.0041504
		c0.6170349-0.6867371,0.7454681-1.9136658-1.171524-7.1964417c-1.341156-3.6959839-2.5903931-6.3421631-3.5145416-8.3679504
		c-1.8213348-3.9925537-3.2043762-7.3825073-3.8492584-9.0374146c-1.0659027-2.7353821-2.4811096-6.8020935-3.6819-12.0498657"/>
</g>
</svg>
