<?xml version="1.0" encoding="utf-8"?>
<!-- Generator: Adobe Illustrator 19.0.0, SVG Export Plug-In . SVG Version: 6.00 Build 0)  -->
<svg version="1.1" id="Layer_1" xmlns="http://www.w3.org/2000/svg" xmlns:xlink="http://www.w3.org/1999/xlink" x="0px" y="0px"
	 width="100px" height="100px" viewBox="-205 207 100 100" style="enable-background:new -205 207 100 100;" xml:space="preserve">
<style type="text/css">
	.st0{fill:none;stroke:#3DDC0A;stroke-width:9;stroke-linecap:round;stroke-linejoin:round;stroke-miterlimit:10;}
</style>
<g>
	<line class="st0" x1="-194.1398773" y1="276.625" x2="-144.1684418" y2="276.625"/>
	<polygon class="st0" points="-169.1541595,288.75 -169.1541595,288.75 -169.1541595,288.75 	"/>
	<path class="st0" d="M-157.4430542,241.305542c-0.0774536-1.340332-0.3504028-9.2259521,5.2601318-12.4929199
		c2.2838135-1.329834,5.1268921-1.6421509,8.0144653-0.9979248v-5.1968384c0-5.3117676-4.3060303-9.6178589-9.6178589-9.6178589
		h-30.7357178c-5.3117676,0-9.6178589,4.3060913-9.6178589,9.6178589v68.7642822
		c0,5.3117676,4.3060913,9.6178589,9.6178589,9.6178589h30.7357178c5.3118286,0,9.6178589-4.3060913,9.6178589-9.6178589
		v-33.6218872C-151.8065186,253.1156616-157.0539551,248.0388794-157.4430542,241.305542z"/>
	<path class="st0" d="M-144.168457,257.7602539c2.2700195,1.3803711,4.7416382,2.7242432,7.371582,4.0599976h0.2630005
		c11.479187-5.8302612,20.1414795-11.7802734,20.6462402-20.5147095c0.0774536-1.340332,0.3504028-9.2259521-5.2601929-12.4929199
		c-4.3309937-2.5219116-10.6715088-1.4203491-15.5175171,3.0245972c-2.2906494-2.1010742-4.9146729-3.4450684-7.5031128-4.022522"/>
</g>
</svg>
