<?xml version="1.0" encoding="utf-8"?>
<!-- Generator: Adobe Illustrator 19.0.0, SVG Export Plug-In . SVG Version: 6.00 Build 0)  -->
<svg version="1.1" id="Layer_1" xmlns="http://www.w3.org/2000/svg" xmlns:xlink="http://www.w3.org/1999/xlink" x="0px" y="0px"
	 width="100px" height="100px" viewBox="-205 207 100 100" style="enable-background:new -205 207 100 100;" xml:space="preserve">
<style type="text/css">
	.st0{fill:none;stroke:#5b53bf;stroke-width:8;stroke-linecap:round;stroke-linejoin:round;stroke-miterlimit:10;}
</style>
<g>
	<circle class="st0" cx="-155" cy="257" r="15.1945705"/>
	<g>
		<circle class="st0" cx="-155" cy="217.0361938" r="6.0361991"/>
		<line class="st0" x1="-155" y1="223.072403" x2="-155" y2="241.8054352"/>
	</g>
	<g>
		<circle class="st0" cx="-155" cy="296.9638062" r="6.0361991"/>
		<line class="st0" x1="-155" y1="290.9276123" x2="-155" y2="272.1945801"/>
	</g>
	<g>
		<circle class="st0" cx="-115.0362015" cy="257" r="6.0361991"/>
		<line class="st0" x1="-121.0723953" y1="257" x2="-139.8054352" y2="257"/>
	</g>
	<g>
		<circle class="st0" cx="-194.9638062" cy="257" r="6.0361991"/>
		<line class="st0" x1="-188.927597" y1="257" x2="-170.1945648" y2="257"/>
	</g>
	<g>
		<circle class="st0" cx="-183.258667" cy="228.7413177" r="6.0361991"/>
		<line class="st0" x1="-178.9904327" y1="233.0095673" x2="-165.7441864" y2="246.2558136"/>
	</g>
	<g>
		<circle class="st0" cx="-126.7413254" cy="285.258667" r="6.0361991"/>
		<line class="st0" x1="-131.0095673" y1="280.990448" x2="-144.2558136" y2="267.7441711"/>
	</g>
	<g>
		<circle class="st0" cx="-126.7413254" cy="228.7413177" r="6.0361991"/>
		<line class="st0" x1="-131.0095673" y1="233.0095673" x2="-144.2558136" y2="246.2558136"/>
	</g>
	<g>
		<circle class="st0" cx="-183.258667" cy="285.258667" r="6.0361991"/>
		<line class="st0" x1="-178.9904327" y1="280.990448" x2="-165.7441864" y2="267.7441711"/>
	</g>
</g>
</svg>
