<?xml version="1.0" encoding="utf-8"?>
<!-- Generator: Adobe Illustrator 19.0.0, SVG Export Plug-In . SVG Version: 6.00 Build 0)  -->
<svg version="1.1" id="Layer_1" xmlns="http://www.w3.org/2000/svg" xmlns:xlink="http://www.w3.org/1999/xlink" x="0px" y="0px"
	 width="100px" height="100px" viewBox="-205 207 100 100" style="enable-background:new -205 207 100 100;" xml:space="preserve">
<style type="text/css">
	.st0{fill:none;stroke:#5b53bf;stroke-width:8;stroke-linecap:round;stroke-linejoin:round;stroke-miterlimit:10;}
</style>
<g>
	<g>
		<path class="st0" d="M-184.2481689,256.8691711c6.4121552,0,12.8243256,0,19.2364807,0
			c4.3696899,0.71521,7.5153656,4.5982971,7.3266602,8.8966675c-0.197525,4.4993896-3.9932251,8.1908875-8.6330872,8.2424927
			c-6.0189667,0-12.0379333,0-18.0568848,0V239.991684h15.9337311c2.7867584,0,5.5067139,1.1929169,7.1806946,3.4208679
			c0.9246368,1.2306213,1.4998932,2.6673889,1.6130524,4.16745c0.3327789,4.4113312-3.3714294,8.8297272-8.6349945,9.2891693"/>
		<path class="st0" d="M-146.9865417,262.3295288c7.1205139,0,14.2410278,0,21.3615417,0
			c-0.281662-5.6221619-4.3663788-10.134964-9.3321228-10.8019409c-6.2613831-0.8410187-11.8212128,4.7148132-12.1521759,10.6791687
			c-0.2602234,4.6894531,2.7406006,9.1149292,6.9967041,10.9247131c4.7429504,2.0167847,9.1264496-0.030426,9.8199463-0.3682556"/>
		<line class="st0" x1="-142.6100769" y1="241.3162689" x2="-132.9548492" y2="241.3162689"/>
	</g>
	<path class="st0" d="M-132,303h-46c-12.7025452,0-23-10.2974548-23-23v-46c0-12.7025452,10.2974548-23,23-23h46
		c12.7025528,0,23,10.2974548,23,23v46C-109,292.7025452-119.2974472,303-132,303z"/>
</g>
</svg>
