<?xml version="1.0" encoding="utf-8"?>
<!-- Generator: Adobe Illustrator 19.0.0, SVG Export Plug-In . SVG Version: 6.00 Build 0)  -->
<svg version="1.1" id="Layer_1" xmlns="http://www.w3.org/2000/svg" xmlns:xlink="http://www.w3.org/1999/xlink" x="0px" y="0px"
	 width="1075.4785156px" height="214.4672852px" viewBox="0 0 1075.4785156 214.4672852"
	 style="enable-background:new 0 0 1075.4785156 214.4672852;" xml:space="preserve">
<style type="text/css">
	.st0{fill:#5b53bf;}
</style>
<g>
	<path class="st0" d="M273.7602539,0l-51.7246094,54.878418H93.0405273l-4.730957,27.4389648h158.9575195l-48.5703125,51.409668
		H79.1635742l-13.5620117,77.2705078H0L37.5317383,0H273.7602539z"/>
	<path class="st0" d="M548.7792969,118.902832c-11.3544922,63.7099609-60.7675781,95.5644531-148.234375,95.5644531
		c-45.2094727,0-78.2714844-6.3085938-99.1904297-18.9238281c-20.9243164-12.6162109-31.3818359-31.5390625-31.3818359-56.7705078
		c0-6.3076172,0.6308594-12.9316406,1.8925781-19.8701172L292.996582,0h65.2856445l-21.4462891,118.902832
		c-0.6308594,4.4160156-0.9462891,8.3085938-0.9462891,11.6699219c0,5.4697266,1.1533203,10.0927734,3.4692383,13.8769531
		c2.3115234,3.7851563,6.3081055,6.8349609,11.9848633,9.1464844c5.6772461,2.3164063,13.246582,3.9970703,22.7084961,5.0458984
		c9.4614258,1.0546875,21.4462891,1.5771484,35.9545898,1.5771484c12.6157227,0,23.284668-0.734375,32.012207-2.2070313
		c8.7226563-1.46875,15.9272461-3.8886719,21.6040039-7.2548828c5.6772461-3.3603516,10.0385742-7.6728516,13.0888672-12.9306641
		c3.0454102-5.2529297,5.2041016-11.5615234,6.4658203-18.9238281L504.3085938,0h65.6015625L548.7792969,118.902832z"/>
	<path class="st0" d="M824.4296875,156.7504883l-51.7246094,54.2470703H569.5927734L607.1240234,0h244.1142578
		l-52.0410156,54.878418H662.6328125l-4.4150391,25.230957h166.8427734l-45.4160156,47.9399414H649.7021484l-5.0458984,28.7011719
		H824.4296875z"/>
	<path class="st0" d="M1075.4785156,156.7504883l-52.0390625,54.2470703H837.0429688L874.5742188,0h64.9707031
		l-27.7548828,156.7504883H1075.4785156z"/>
</g>
</svg>
