<?xml version="1.0" encoding="utf-8"?>
<!-- Generator: Adobe Illustrator 19.0.0, SVG Export Plug-In . SVG Version: 6.00 Build 0)  -->
<svg version="1.1" id="Layer_1" xmlns="http://www.w3.org/2000/svg" xmlns:xlink="http://www.w3.org/1999/xlink" x="0px" y="0px"
	 width="100px" height="100px" viewBox="-205 207 100 100" style="enable-background:new -205 207 100 100;" xml:space="preserve">
<style type="text/css">
	.st0{fill:none;stroke:#5b53bf;stroke-width:8;stroke-linecap:round;stroke-linejoin:round;stroke-miterlimit:10;}
</style>
<g>
	<path class="st0" d="M-111.9487762,224.1852112c-0.6031723-0.4922791-2.718399,1.7531891-7.2339859,3.4722443
		c-2.0874634,0.7947083-3.9000931,1.177002-5.1111069,1.3760376c-4.4675446-4.6994781-10.9334869-6.7360992-16.7093811-5.1111145
		c-7.6335907,2.1476746-12.9824219,10.3874054-11.7949524,19.4616241
		c-3.9113312-0.0073242-11.1130219-0.5342255-19.0684052-4.3248138c-8.395401-4.0003967-13.4870148-9.6616364-15.9230804-12.7777863
		c-0.6521454,1.176239-3.1089783,5.9276581-1.7691193,11.9914856c1.5064392,6.8178406,6.6863403,10.1978912,7.6666718,10.8119812
		c-1.4350128-0.1282196-3.5396271-0.4528046-5.8975525-1.3762054c-4.1485748-1.6245117-5.8226929-3.8266144-6.4871674-3.3418427
		c-0.9899902,0.7225037,1.1487885,6.7640228,5.3076477,11.4017334c4.3184357,4.8155518,9.6320038,6.7983398,12.7779388,7.666687
		c-2.3983307-0.1360168-5.1115875-0.428009-8.0598907-0.9830017c-2.800293-0.5270386-5.3138885-1.1974487-7.5095978-1.8995056
		c1.4301758,2.4975281,5.1660156,8.2101135,12.4241791,11.7286682c4.0958405,1.9856262,7.880661,2.5778503,10.4187469,2.7521057
		c-2.3711853,1.7973328-7.1442871,4.9086304-13.9572906,6.0940857c-8.5594788,1.4891052-15.3537598-0.9288635-18.1248779-2.0962219
		c20.8153687,15.049469,47.4314117,15.2796936,64.7146454,1.7030029
		c16.6575851-13.0852356,18.0557785-33.8190155,18.2426453-37.4807739c3.0142899-3.1453094,6.0284195-6.2906189,9.0427094-9.4359283
		c-2.4900436-0.065506-4.9800873-0.1310272-7.4701309-0.1965332
		C-111.9679642,226.4822998-111.488327,224.5608063-111.9487762,224.1852112z"/>
</g>
</svg>
