<?xml version="1.0" encoding="utf-8"?>
<!-- Generator: Adobe Illustrator 19.0.0, SVG Export Plug-In . SVG Version: 6.00 Build 0)  -->
<svg version="1.1" id="Layer_1" xmlns="http://www.w3.org/2000/svg" xmlns:xlink="http://www.w3.org/1999/xlink" x="0px" y="0px"
	 width="100px" height="100px" viewBox="-205 207 100 100" style="enable-background:new -205 207 100 100;" xml:space="preserve">
<style type="text/css">
	.st0{fill:none;stroke:#EA1F66;stroke-width:9;stroke-linecap:round;stroke-linejoin:round;stroke-miterlimit:10;}
</style>
<g>
	<path class="st0" d="M-122.1379318,283.2556763c-2.7860718-3.103241-5.6754532-7.5667419-6.5943222-13.3764954
		c-0.1282654-0.8109741-0.1729584-3.459198-0.1468353-6.5453186c0.039566-4.6713867,0.3733978-7.9334869,0.4404297-8.8284607
		c0.6536865-11.1624146-5.4682007-24.9713593-18.3516541-29.6820831c-1.761795-0.6441498-4.5289154-1.8486328-8.2097168-1.7253876
		c-3.6807861-0.1232452-6.4479218,1.0812378-8.2097015,1.7253876
		c-12.8834534,4.7107239-19.0053406,18.5196686-18.3516693,29.6820831c0.0670471,0.8949738,0.4008789,4.157074,0.4404297,8.8284607
		c0.026123,3.0861206-0.0185699,5.7343445-0.1468201,6.5453186c-0.918869,5.8097534-3.8082581,10.2732544-6.5942688,13.3764954
		c-1.6449127,1.8321533-0.3634796,4.7371521,2.0987854,4.7371521h61.5265656
		C-121.7745056,287.9928284-120.4930191,285.0878296-122.1379318,283.2556763z"/>
	<path class="st0" d="M-145.1115875,288.0716858v3.039917c0,5.4612122-4.4271851,9.8883972-9.8883972,9.8883972h-0.0000305
		c-5.4612122,0-9.8883972-4.4271851-9.8883972-9.8883972v-3.039917"/>
	<circle class="st0" cx="-155" cy="216.378891" r="3.378891"/>
</g>
</svg>
